<svg xmlns="http://www.w3.org/2000/svg" viewBox="0 0 8 8">
    <path fill="#D6B12D" d="M4.204.232c.576.673 1.189 1.315 1.754 1.999a325.84 325.84 0 01-3.565-.006C2.982 1.553 3.546.84 4.204.232zM1.052 2.256c.274.074.549.147.825.217-.333.79-.638 1.588-.986 2.37.011-.675.049-1.345.108-2.016l.053-.571zm1.031.438c.623 1.046 1.271 2.084 1.819 3.171-1.005-.088-2.014-.143-3.021-.206.406-.986.777-1.986 1.202-2.965zM3.279.729c-.356.444-.697.925-1.111 1.316-.216.273-.638 0-.919-.015.466-.309.943-.6 1.413-.905.205-.133.411-.264.617-.396zM2.296 2.49c1.25.026 2.503.017 3.753.003a874.622 874.622 0 00-1.862 3.244C3.53 4.669 2.923 3.573 2.296 2.49zM1.204 5.956a54.62 54.62 0 012.832.182c.008.508.006 1.014-.007 1.523-.948-.56-1.868-1.162-2.825-1.705z"/>
</svg>
