<?xml version="1.0" encoding="UTF-8"?>
<svg xmlns="http://www.w3.org/2000/svg" xmlns:xlink="http://www.w3.org/1999/xlink" width="256px" height="256px" viewBox="0 0 256 256" version="1.1">
<g id="surface1">
<path style=" stroke:none;fill-rule:nonzero;fill:rgb(87.058824%,86.666667%,87.843137%);fill-opacity:1;" d="M 112.246094 144.410156 L 112.246094 242.871094 L 143.753906 256 L 143.753906 144.410156 Z M 112.246094 144.410156 "/>
<path style=" stroke:none;fill-rule:nonzero;fill:rgb(0%,63.137255%,65.490196%);fill-opacity:1;" d="M 128 0 C 111.574219 0 98.347656 10.4375 91.589844 24.34375 C 88.195312 31.324219 84.421875 50.351562 80.941406 72.203125 C 80.933594 72.214844 101.742188 98.460938 101.742188 98.460938 C 101.742188 98.460938 77.949219 92.113281 77.945312 92.121094 C 72.816406 127.996094 68.921875 164.101562 68.921875 164.101562 L 128 216.617188 C 128 216.617188 128 41.355469 128 0 Z M 128 0 "/>
<path style=" stroke:none;fill-rule:nonzero;fill:rgb(0%,84.313725%,87.45098%);fill-opacity:1;" d="M 128 0 C 144.425781 0 157.652344 10.4375 164.410156 24.34375 C 167.804688 31.324219 171.578125 50.351562 175.058594 72.203125 C 175.066406 72.214844 154.257812 98.460938 154.257812 98.460938 C 154.257812 98.460938 178.050781 92.113281 178.054688 92.121094 C 183.183594 127.996094 187.078125 164.101562 187.078125 164.101562 L 128 216.617188 C 128 216.617188 128 41.355469 128 0 Z M 128 0 "/>
</g>
</svg>
