<svg id="eL4hDz8x6Bo1" xmlns="http://www.w3.org/2000/svg" xmlns:xlink="http://www.w3.org/1999/xlink" viewBox="0 0 700 400" shape-rendering="geometricPrecision" text-rendering="geometricPrecision" width="700" height="400"><style><![CDATA[#eL4hDz8x6Bo8_tr {animation: eL4hDz8x6Bo8_tr__tr 10000ms linear infinite alternate-reverse forwards}@keyframes eL4hDz8x6Bo8_tr__tr { 0% {transform: translate(18.200001px,16.059999px) rotate(0deg);animation-timing-function: cubic-bezier(1,0,0,1)} 100% {transform: translate(18.200001px,16.059999px) rotate(360deg)}} #eL4hDz8x6Bo8 {animation: eL4hDz8x6Bo8_s_da 10000ms linear infinite alternate-reverse forwards}@keyframes eL4hDz8x6Bo8_s_da { 0% {stroke-dasharray: 1;animation-timing-function: cubic-bezier(0.95,0.05,0.795,0.035)} 100% {stroke-dasharray: 80.32}} #eL4hDz8x6Bo9_tr {animation: eL4hDz8x6Bo9_tr__tr 10000ms linear infinite alternate-reverse forwards}@keyframes eL4hDz8x6Bo9_tr__tr { 0% {transform: translate(18.2px,16.065px) rotate(0deg);animation-timing-function: cubic-bezier(0.42,0,0.58,1)} 100% {transform: translate(18.2px,16.065px) rotate(90deg)}} #eL4hDz8x6Bo10 {animation: eL4hDz8x6Bo10_s_da 10000ms linear infinite alternate-reverse forwards}@keyframes eL4hDz8x6Bo10_s_da { 0% {stroke-dasharray: 1.43, 1.43, 0.29, 0.86, 0.29, 1.43;animation-timing-function: cubic-bezier(0.42,0,0.58,1)} 100% {stroke-dasharray: 5, 6, 5, 6}} #eL4hDz8x6Bo13_tr {animation: eL4hDz8x6Bo13_tr__tr 10000ms linear infinite alternate-reverse forwards}@keyframes eL4hDz8x6Bo13_tr__tr { 0% {transform: translate(18.205px,16.065px) rotate(0deg);animation-timing-function: cubic-bezier(0.42,0,0.58,1)} 100% {transform: translate(18.205px,16.065px) rotate(180deg)}} #eL4hDz8x6Bo14 {animation: eL4hDz8x6Bo14_s_da 10000ms linear infinite alternate-reverse forwards}@keyframes eL4hDz8x6Bo14_s_da { 0% {stroke-dasharray: 2, 5, 2, 5;animation-timing-function: cubic-bezier(0.42,0,0.58,1)} 100% {stroke-dasharray: 0.29, 1.43, 0.29, 1.43, 0.29, 1.43, 1.14, 1.43, 1.14, 1.43}} #eL4hDz8x6Bo17_tr {animation: eL4hDz8x6Bo17_tr__tr 10000ms linear infinite alternate-reverse forwards}@keyframes eL4hDz8x6Bo17_tr__tr { 0% {transform: translate(30.372801px,24.690001px) rotate(0deg);animation-timing-function: cubic-bezier(0.42,0,0.58,1)} 100% {transform: translate(30.372801px,24.690001px) rotate(-180deg)}} #eL4hDz8x6Bo22 {animation: eL4hDz8x6Bo22_s_do 10000ms linear infinite alternate-reverse forwards}@keyframes eL4hDz8x6Bo22_s_do { 0% {stroke-dashoffset: 20.15;animation-timing-function: cubic-bezier(0.42,0,0.58,1)} 100% {stroke-dashoffset: 0}} #eL4hDz8x6Bo25_ts {animation: eL4hDz8x6Bo25_ts__ts 10000ms linear infinite alternate-reverse forwards}@keyframes eL4hDz8x6Bo25_ts__ts { 0% {transform: translate(4.25px,1.76px) scale(1,1)} 2% {transform: translate(4.25px,1.76px) scale(1,1)} 4% {transform: translate(4.25px,1.76px) scale(0,0)} 7.5% {transform: translate(4.25px,1.76px) scale(1,1)} 13% {transform: translate(4.25px,1.76px) scale(0,0)} 15% {transform: translate(4.25px,1.76px) scale(1,1)} 22% {transform: translate(4.25px,1.76px) scale(1,1)} 23% {transform: translate(4.25px,1.76px) scale(0,0)} 25% {transform: translate(4.25px,1.76px) scale(1,1)} 26% {transform: translate(4.25px,1.76px) scale(0,0)} 38% {transform: translate(4.25px,1.76px) scale(0,0)} 40% {transform: translate(4.25px,1.76px) scale(1,1)} 48% {transform: translate(4.25px,1.76px) scale(0,0)} 50% {transform: translate(4.25px,1.76px) scale(1,1)} 59% {transform: translate(4.25px,1.76px) scale(1,1)} 60% {transform: translate(4.25px,1.76px) scale(0,0)} 75% {transform: translate(4.25px,1.76px) scale(1,1)} 76% {transform: translate(4.25px,1.76px) scale(0,0)} 85% {transform: translate(4.25px,1.76px) scale(0,0)} 87% {transform: translate(4.25px,1.76px) scale(1,1)} 100% {transform: translate(4.25px,1.76px) scale(1,1)}} #eL4hDz8x6Bo28_ts {animation: eL4hDz8x6Bo28_ts__ts 10000ms linear infinite alternate-reverse forwards}@keyframes eL4hDz8x6Bo28_ts__ts { 0% {transform: translate(0.43px,8.2px) scale(0,0)} 4% {transform: translate(0.43px,8.2px) scale(0,0)} 5% {transform: translate(0.43px,8.2px) scale(1,1)} 10% {transform: translate(0.43px,8.2px) scale(0,0)} 13% {transform: translate(0.43px,8.2px) scale(1,1)} 25% {transform: translate(0.43px,8.2px) scale(1,1)} 26% {transform: translate(0.43px,8.2px) scale(0,0)} 38% {transform: translate(0.43px,8.2px) scale(1,1)} 39% {transform: translate(0.43px,8.2px) scale(0,0)} 53% {transform: translate(0.43px,8.2px) scale(1,1)} 54% {transform: translate(0.43px,8.2px) scale(0,0)} 71% {transform: translate(0.43px,8.2px) scale(1,1)} 72% {transform: translate(0.43px,8.2px) scale(0,0)} 81% {transform: translate(0.43px,8.2px) scale(0,0)} 83% {transform: translate(0.43px,8.2px) scale(1,1)} 92% {transform: translate(0.43px,8.2px) scale(0,0)} 94% {transform: translate(0.43px,8.2px) scale(1,1)} 100% {transform: translate(0.43px,8.2px) scale(1,1)}} #eL4hDz8x6Bo31_ts {animation: eL4hDz8x6Bo31_ts__ts 10000ms linear infinite alternate-reverse forwards}@keyframes eL4hDz8x6Bo31_ts__ts { 0% {transform: translate(34.33px,21.679999px) scale(1,1)} 5% {transform: translate(34.33px,21.679999px) scale(1,1)} 10% {transform: translate(34.33px,21.679999px) scale(0,0)} 20% {transform: translate(34.33px,21.679999px) scale(0,0)} 22% {transform: translate(34.33px,21.679999px) scale(1,1)} 30% {transform: translate(34.33px,21.679999px) scale(1,1)} 31% {transform: translate(34.33px,21.679999px) scale(0,0)} 33% {transform: translate(34.33px,21.679999px) scale(1,1)} 34% {transform: translate(34.33px,21.679999px) scale(0,0)} 52% {transform: translate(34.33px,21.679999px) scale(0,0)} 54% {transform: translate(34.33px,21.679999px) scale(1,1)} 62% {transform: translate(34.33px,21.679999px) scale(0,0)} 64% {transform: translate(34.33px,21.679999px) scale(1,1)} 72% {transform: translate(34.33px,21.679999px) scale(1,1)} 73% {transform: translate(34.33px,21.679999px) scale(0,0)} 75% {transform: translate(34.33px,21.679999px) scale(1,1)} 76% {transform: translate(34.33px,21.679999px) scale(0,0)} 94% {transform: translate(34.33px,21.679999px) scale(0,0)} 96% {transform: translate(34.33px,21.679999px) scale(1,1)} 100% {transform: translate(34.33px,21.679999px) scale(1,1)}} #eL4hDz8x6Bo34 {animation: eL4hDz8x6Bo34_s_do 10000ms linear infinite alternate-reverse forwards}@keyframes eL4hDz8x6Bo34_s_do { 0% {stroke-dashoffset: 0} 35% {stroke-dashoffset: 0} 45% {stroke-dashoffset: 24.4} 80% {stroke-dashoffset: 24.4} 90% {stroke-dashoffset: 0} 100% {stroke-dashoffset: 0}} #eL4hDz8x6Bo35 {animation: eL4hDz8x6Bo35_s_do 10000ms linear infinite alternate-reverse forwards}@keyframes eL4hDz8x6Bo35_s_do { 0% {stroke-dashoffset: 0} 10% {stroke-dashoffset: 0} 20% {stroke-dashoffset: 7.9} 50% {stroke-dashoffset: 7.9} 60% {stroke-dashoffset: 0} 70% {stroke-dashoffset: 7.9} 100% {stroke-dashoffset: 7.9}} #eL4hDz8x6Bo36_ts {animation: eL4hDz8x6Bo36_ts__ts 10000ms linear infinite alternate-reverse forwards}@keyframes eL4hDz8x6Bo36_ts__ts { 0% {transform: translate(29.96px,30.660001px) scale(0,0)} 6% {transform: translate(29.96px,30.660001px) scale(0,0)} 7% {transform: translate(29.96px,30.660001px) scale(1,1)} 14% {transform: translate(29.96px,30.660001px) scale(0,0)} 17% {transform: translate(29.96px,30.660001px) scale(1,1)} 22% {transform: translate(29.96px,30.660001px) scale(1,1)} 23% {transform: translate(29.96px,30.660001px) scale(0,0)} 29% {transform: translate(29.96px,30.660001px) scale(1,1)} 30% {transform: translate(29.96px,30.660001px) scale(0,0)} 41% {transform: translate(29.96px,30.660001px) scale(1,1)} 42% {transform: translate(29.96px,30.660001px) scale(0,0)} 50% {transform: translate(29.96px,30.660001px) scale(1,1)} 51% {transform: translate(29.96px,30.660001px) scale(0,0)} 67% {transform: translate(29.96px,30.660001px) scale(0,0)} 69% {transform: translate(29.96px,30.660001px) scale(1,1)} 78% {transform: translate(29.96px,30.660001px) scale(0,0)} 80% {transform: translate(29.96px,30.660001px) scale(1,1)} 100% {transform: translate(29.96px,30.660001px) scale(1,1)}} #eL4hDz8x6Bo44_to {animation: eL4hDz8x6Bo44_to__to 10000ms linear infinite alternate-reverse forwards}@keyframes eL4hDz8x6Bo44_to__to { 0% {transform: translate(3.629425px,1.322539px);animation-timing-function: cubic-bezier(0.42,0,0.58,1)} 100% {transform: translate(-0.860437px,1.321531px)}}]]></style><g clip-rule="evenodd" id="eL4hDz8x6Bo3" transform="matrix(10.3,0,0,10.3,160.7,34.3)">
        <g display="none" clip-rule="evenodd" id="eL4hDz8x6Bo4">
            <path clip-rule="evenodd" stroke-width="0.29" stroke-miterlimit="2.61313" id="eL4hDz8x6Bo5" fill="none" fill-rule="evenodd" stroke="rgb(102, 255, 204)" stroke-linecap="round" stroke-linejoin="round" d="M 22.5 19.2 C 21.6 18.9 22.6 17.8 21.4 17.7 C 20.9 17.6 20 18.2 20 16.9 C 20 16.6 20.1 16 19.9 15.8 C 19.4 15.2 17.6 15.4 17.7 14.5 C 17.7 13.8 18.6 14.1 18 13.3 C 17.6 12.8 17.1 12.4 17.9 11.9 C 18.2 11.7 18.9 11.2 18.6 10.8"/>
            <path clip-rule="evenodd" stroke-width="0.29" stroke-miterlimit="2.61313" id="eL4hDz8x6Bo6" fill="none" fill-rule="evenodd" stroke="rgb(102, 255, 204)" stroke-linecap="round" stroke-linejoin="round" d="M 14.6 20 C 14.5 19.5 15 19.7 15 19 C 15.1 17.6 13.9 18.6 15 16.8 C 15.4 16.1 15 15.2 14.2 15.3 C 13 15.4 13.6 16 12.9 16 M 13.3 14.2 C 13.8 14.1 14.2 14.7 14.7 14 C 15.1 13.5 14.4 13.2 15 13 C 15.6 12.8 16.1 12.3 15.5 11.5"/>
        </g>
        <path display="none" clip-rule="evenodd" stroke-width="0.29" stroke-miterlimit="2.61313" id="eL4hDz8x6Bo7" fill="none" fill-rule="evenodd" stroke="rgb(102, 255, 204)" stroke-linecap="round" stroke-linejoin="round" d="M 18.2 10.7 C 21.1 10.7 23.6 13.1 23.6 16.1 C 23.6 19 21.1 21.4 18.2 21.4 C 15.3 21.4 12.9 19 12.9 16.1 C 12.9 13.1 15.3 10.7 18.2 10.7 Z"/>
        <g id="eL4hDz8x6Bo8_tr" transform="translate(18.2,16.1) rotate(360)">
            <path clip-rule="evenodd" stroke-width="0.29" stroke-miterlimit="2.61313" id="eL4hDz8x6Bo8" fill="none" fill-rule="evenodd" stroke="rgb(153, 0, 255)" stroke-dasharray="80.3" stroke-dashoffset="40.2" transform="translate(-18.2,-16.1)" d="M 18.2 9.7 C 21.7 9.7 24.6 12.5 24.6 16.1 C 24.6 19.6 21.7 22.4 18.2 22.4 C 14.7 22.4 11.8 19.6 11.8 16.1 C 11.8 12.5 14.7 9.7 18.2 9.7 Z"/>
        </g>
        <g id="eL4hDz8x6Bo9_tr" transform="translate(18.2,16.1) rotate(90)">
            <g id="eL4hDz8x6Bo9" transform="translate(-18.2,-16.1)">
                <path clip-rule="evenodd" stroke-width="0.29" stroke-miterlimit="2.61313" id="eL4hDz8x6Bo10" fill="none" fill-rule="evenodd" stroke="rgb(203, 181, 255)" stroke-dasharray="5 6 5 6" transform="matrix(0.4,0.9,-0.9,0.4,26.4,-6.8)" d="M 18.2 5.7 C 23.9 5.7 28.6 10.3 28.6 16.1 C 28.6 21.8 23.9 26.4 18.2 26.4 C 12.5 26.4 7.8 21.8 7.8 16.1 C 7.8 10.3 12.5 5.7 18.2 5.7 Z"/>
                <circle clip-rule="evenodd" stroke-width="0.29" stroke-miterlimit="2.61313" id="eL4hDz8x6Bo11" fill="rgb(2, 9, 23)" fill-rule="evenodd" stroke="rgb(203, 181, 255)" transform="matrix(1,0,0,1,7.8,15.7)" r="1.9"/>
                <circle clip-rule="evenodd" stroke-width="0.29" stroke-miterlimit="2.61313" id="eL4hDz8x6Bo12" fill="rgb(2, 9, 23)" fill-rule="evenodd" stroke="rgb(230, 230, 230)" transform="matrix(1,0,0,1,27.8,12.3)" r="0.8"/>
            </g>
        </g>
        <g id="eL4hDz8x6Bo13_tr" transform="translate(18.2,16.1) rotate(180)">
            <g id="eL4hDz8x6Bo13" transform="translate(-18.2,-16.1)">
                <path clip-rule="evenodd" stroke-width="0.29" stroke-miterlimit="2.61313" id="eL4hDz8x6Bo14" fill="none" fill-rule="evenodd" stroke="rgb(0, 204, 255)" stroke-linecap="round" stroke-linejoin="round" stroke-dasharray="0.3 1.4 0.3 1.4 0.3 1.4 1.1 1.4 1.1 1.4" transform="matrix(0.9,-0.4,0.4,0.9,-4.6,7.8)" d="M 18.2 1.1 C 26.4 1.1 33.1 7.8 33.1 16.1 C 33.1 24.3 26.4 31 18.2 31 C 10 31 3.3 24.3 3.3 16.1 C 3.3 7.8 10 1.1 18.2 1.1 Z"/>
                <circle clip-rule="evenodd" stroke-width="0.29" stroke-miterlimit="2.61313" id="eL4hDz8x6Bo15" fill="rgb(2, 9, 23)" fill-rule="evenodd" stroke="rgb(255, 102, 0)" transform="matrix(1,0,0,1,12.4,2.3)" r="2.2"/>
                <circle clip-rule="evenodd" stroke-width="0.29" stroke-miterlimit="2.61313" id="eL4hDz8x6Bo16" fill="rgb(2, 9, 23)" fill-rule="evenodd" stroke="rgb(255, 204, 0)" transform="matrix(1,0,0,1,9.9,28.4)" r="0.8"/>
                <g id="eL4hDz8x6Bo17_tr" transform="translate(30.4,24.7) rotate(-180)">
                    <g id="eL4hDz8x6Bo17" transform="translate(-30.4,-24.7)">
                        <circle clip-rule="evenodd" stroke-width="0.29" stroke-miterlimit="2.61313" id="eL4hDz8x6Bo18" fill="rgb(2, 9, 23)" fill-rule="evenodd" stroke="rgb(255, 0, 102)" transform="matrix(1,0,0,1,30.4,24.7)" r="2.2"/>
                        <g clip-path="url(#eL4hDz8x6Bo23)" clip-rule="evenodd" id="eL4hDz8x6Bo19">
                            <g id="eL4hDz8x6Bo20">
                                <g clip-rule="evenodd" id="eL4hDz8x6Bo21">
                                    <circle clip-rule="evenodd" stroke-width="0.29" stroke-miterlimit="2.61313" id="eL4hDz8x6Bo22" fill="none" fill-rule="evenodd" stroke="rgb(204, 255, 204)" stroke-dasharray="1.4 0.3 0.3 0.3 0.3 0.3" transform="matrix(1.9,-0.5,0.1,0.4,30.4,24.7)" r="1.9"/>
                                </g>
                            </g>
                            <clipPath id="eL4hDz8x6Bo23">
                                <path clip-rule="evenodd" stroke-width="1" id="eL4hDz8x6Bo24" fill="rgb(0, 0, 0)" fill-rule="evenodd" stroke="none" d="M 28.1 24.2 C 26.9 24.7 26.2 25.3 26.3 25.8 C 26.4 26.4 28.4 26.5 30.7 25.9 C 33 25.3 34.6 24.3 34.5 23.6 C 34.4 23.1 33.4 23 32.1 23.1 C 32.3 23.4 32.5 23.7 32.6 24.1 L 28.1 25.3 C 28.1 25.1 28.1 24.9 28.1 24.7 C 28.1 24.5 28.1 24.4 28.1 24.2 Z"/>
                            </clipPath>
                        </g>
                    </g>
                </g>
            </g>
        </g>
        <g id="eL4hDz8x6Bo25_ts" transform="translate(4.3,1.8) scale(1,1)">
            <g id="eL4hDz8x6Bo25" transform="translate(-4.3,-1.8)">
                <line id="eL4hDz8x6Bo26" x1="4.71" y1="1.3" x2="3.79" y2="2.22" clip-rule="evenodd" fill="none" fill-rule="evenodd" stroke="rgb(153,255,255)" stroke-width="0.29" stroke-linecap="round" stroke-linejoin="round" stroke-miterlimit="2.61313"/>
                <line id="eL4hDz8x6Bo27" x1="3.79" y1="1.3" x2="4.71" y2="2.22" clip-rule="evenodd" fill="none" fill-rule="evenodd" stroke="rgb(153,255,255)" stroke-width="0.29" stroke-linecap="round" stroke-linejoin="round" stroke-miterlimit="2.61313"/>
            </g>
        </g>
        <g id="eL4hDz8x6Bo28_ts" transform="translate(0.4,8.2) scale(1,1)">
            <g id="eL4hDz8x6Bo28" transform="translate(-0.4,-8.2)">
                <line id="eL4hDz8x6Bo29" x1="0.72" y1="7.91" x2="0.14" y2="8.49" clip-rule="evenodd" fill="none" fill-rule="evenodd" stroke="rgb(255,255,204)" stroke-width="0.29" stroke-linecap="round" stroke-linejoin="round" stroke-miterlimit="2.61313"/>
                <line id="eL4hDz8x6Bo30" x1="0.14" y1="7.91" x2="0.72" y2="8.49" clip-rule="evenodd" fill="none" fill-rule="evenodd" stroke="rgb(255,255,204)" stroke-width="0.29" stroke-linecap="round" stroke-linejoin="round" stroke-miterlimit="2.61313"/>
            </g>
        </g>
        <g id="eL4hDz8x6Bo31_ts" transform="translate(34.3,21.7) scale(1,1)">
            <g id="eL4hDz8x6Bo31" transform="translate(-34.3,-21.7)">
                <line id="eL4hDz8x6Bo32" x1="34.62" y1="21.39" x2="34.04" y2="21.97" clip-rule="evenodd" fill="none" fill-rule="evenodd" stroke="rgb(153,255,255)" stroke-width="0.29" stroke-linecap="round" stroke-linejoin="round" stroke-miterlimit="2.61313"/>
                <line id="eL4hDz8x6Bo33" x1="34.04" y1="21.39" x2="34.62" y2="21.97" clip-rule="evenodd" fill="none" fill-rule="evenodd" stroke="rgb(153,255,255)" stroke-width="0.29" stroke-linecap="round" stroke-linejoin="round" stroke-miterlimit="2.61313"/>
            </g>
        </g>
        <polyline clip-rule="evenodd" stroke-width="0.29" stroke-miterlimit="2.61313" id="eL4hDz8x6Bo34" fill="none" fill-rule="evenodd" stroke="rgb(255, 204, 0)" stroke-linecap="round" stroke-linejoin="round" stroke-dasharray="6.1" points="34.5,2.1 33.7,3 32.8,2.1 31.9,3 31.1,2.1 30.2,3"/>
        <polyline clip-rule="evenodd" stroke-width="0.29" stroke-miterlimit="2.61313" id="eL4hDz8x6Bo35" fill="none" fill-rule="evenodd" stroke="rgb(255, 0, 255)" stroke-linecap="round" stroke-linejoin="round" stroke-dasharray="4" stroke-dashoffset="7.9" points="0.8,25.1 1.4,25.7 1.9,25.1 2.5,25.7 3,25.1 3.6,25.7"/>
        <g id="eL4hDz8x6Bo36_ts" transform="translate(30,30.7) scale(1,1)">
            <g id="eL4hDz8x6Bo36" transform="translate(-30,-30.7)">
                <line id="eL4hDz8x6Bo37" x1="30.42" y1="30.2" x2="29.5" y2="31.12" clip-rule="evenodd" fill="none" fill-rule="evenodd" stroke="rgb(204,255,204)" stroke-width="0.29" stroke-linecap="round" stroke-linejoin="round" stroke-miterlimit="2.61313"/>
                <line id="eL4hDz8x6Bo38" x1="29.5" y1="30.2" x2="30.42" y2="31.12" clip-rule="evenodd" fill="none" fill-rule="evenodd" stroke="rgb(204,255,204)" stroke-width="0.29" stroke-linecap="round" stroke-linejoin="round" stroke-miterlimit="2.61313"/>
            </g>
        </g>
        <path clip-rule="evenodd" stroke-width="1" id="eL4hDz8x6Bo39" fill="none" fill-rule="evenodd" stroke="none" d="M 28.1 24.2 C 26.9 24.7 26.2 25.3 26.3 25.8 C 26.4 26.4 28.4 26.5 30.7 25.9 C 33 25.3 34.6 24.3 34.5 23.6 C 34.4 23.1 33.4 23 32.1 23.1 C 32.3 23.4 32.5 23.7 32.6 24.1 L 28.1 25.3 C 28.1 25.1 28.1 24.9 28.1 24.7 C 28.1 24.5 28.1 24.4 28.1 24.2 Z"/>
        <g clip-rule="evenodd" id="eL4hDz8x6Bo40" transform="matrix(3.8,0,0,3.8,12.7,10.5)">
            <g clip-path="url(#eL4hDz8x6Bo51)" clip-rule="evenodd" id="eL4hDz8x6Bo41">
                <g id="eL4hDz8x6Bo42">
                    <g clip-rule="evenodd" id="eL4hDz8x6Bo43">
                        <g id="eL4hDz8x6Bo44_to" transform="translate(-0.9,1.3)">
                            <g clip-rule="evenodd" id="eL4hDz8x6Bo44" transform="translate(-3.6,-1.3)">
                                <path clip-rule="evenodd" stroke-width="0.08" stroke-miterlimit="2.61313" id="eL4hDz8x6Bo45" fill="none" fill-rule="evenodd" stroke="rgb(102, 255, 204)" stroke-linecap="round" stroke-linejoin="round" d="M 2.6 2.4 C 2.7 2.5 2.9 2.2 2.7 2.1 C 2.6 2 2.4 1.4 2.8 1.3 C 2.9 1.3 3 1.3 3 1.1 C 3.1 0.9 1.9 1 2.6 0.8 C 2.6 0.7 2.7 0.9 2.9 0.9 C 3.3 0.9 3.6 0.2 2.9 0.3 C 2.4 0.3 2.6 0 2.1 0.1 C 1.8 0.1 1.8 -0.1 1.4 0 C 1.2 0.1 1.9 0.1 1.4 0.5 C 1.2 0.6 1.3 0.7 1.4 0.9 C 1.6 1.1 1.3 1 1.3 1.2 C 1.3 1.4 1.8 1.4 1.9 1.5 C 2 1.6 1.9 1.7 1.9 1.8 C 1.9 2.2 2.2 2 2.3 2 C 2.6 2 2.4 2.4 2.6 2.4 Z"/>
                                <path clip-rule="evenodd" stroke-width="0.08" stroke-miterlimit="2.61313" id="eL4hDz8x6Bo46" fill="none" fill-rule="evenodd" stroke="rgb(102, 255, 204)" stroke-linecap="round" stroke-linejoin="round" d="M 0.8 0.4 C 0.7 0.2 -0.7 0.3 -0.5 0.6 C -0.4 0.7 -0.1 0.6 -0.3 0.9 C -0.3 1 0 1.3 0.1 1.3 C 0.1 1.3 0.1 1.1 0.1 1.1 C 0.3 1.1 0.4 1.2 0.5 1 C 0.6 0.9 0.5 0.8 0.6 0.8 C 0.8 0.7 0.9 0.6 0.8 0.4 Z"/>
                                <path clip-rule="evenodd" stroke-width="0.08" stroke-miterlimit="2.61313" id="eL4hDz8x6Bo47" fill="none" fill-rule="evenodd" stroke="rgb(102, 255, 204)" stroke-linecap="round" stroke-linejoin="round" d="M 0.5 2.6 C 0.3 2.8 0.2 2.1 0 2.1 C -0.2 2.1 -0.1 1.8 -0.1 1.6 C 0 1.5 -0.2 1.5 -0.1 1.4 C 0 1.3 0.3 1.4 0.4 1.4 C 0.6 1.4 0.7 1.6 0.6 1.8 C 0.3 2.3 0.6 2 0.6 2.4 C 0.6 2.5 0.6 2.6 0.5 2.6 Z"/>
                                <path clip-rule="evenodd" stroke-width="0.08" stroke-miterlimit="2.61313" id="eL4hDz8x6Bo48" fill="none" fill-rule="evenodd" stroke="rgb(102, 255, 204)" stroke-linecap="round" stroke-linejoin="round" d="M 7.1 2.4 C 7.2 2.5 7.4 2.2 7.2 2.1 C 7.1 2 6.9 1.4 7.2 1.3 C 7.4 1.3 7.4 1.3 7.5 1.1 C 7.6 0.9 6.4 1 7.1 0.8 C 7.1 0.7 7.2 0.9 7.4 0.9 C 7.7 0.9 8.1 0.2 7.4 0.3 C 6.9 0.3 7.1 0 6.6 0.1 C 6.2 0.1 6.3 -0.1 5.9 0 C 5.7 0.1 6.4 0.1 5.9 0.5 C 5.7 0.6 5.8 0.7 5.9 0.9 C 6.1 1.1 5.8 1 5.8 1.2 C 5.8 1.4 6.3 1.4 6.4 1.5 C 6.5 1.6 6.4 1.7 6.4 1.8 C 6.4 2.2 6.7 2 6.8 2 C 7.1 2 6.9 2.4 7.1 2.4 Z"/>
                                <path clip-rule="evenodd" stroke-width="0.08" stroke-miterlimit="2.61313" id="eL4hDz8x6Bo49" fill="none" fill-rule="evenodd" stroke="rgb(102, 255, 204)" stroke-linecap="round" stroke-linejoin="round" d="M 5.2 0.4 C 5.2 0.2 3.8 0.3 4 0.6 C 4.1 0.7 4.4 0.6 4.2 0.9 C 4.2 1 4.5 1.3 4.6 1.3 C 4.6 1.3 4.6 1.1 4.6 1.1 C 4.8 1.1 4.9 1.2 5 1 C 5.1 0.9 4.9 0.8 5.1 0.8 C 5.3 0.7 5.4 0.6 5.2 0.4 Z"/>
                                <path clip-rule="evenodd" stroke-width="0.08" stroke-miterlimit="2.61313" id="eL4hDz8x6Bo50" fill="none" fill-rule="evenodd" stroke="rgb(102, 255, 204)" stroke-linecap="round" stroke-linejoin="round" d="M 5 2.6 C 4.7 2.8 4.7 2.1 4.5 2.1 C 4.3 2.1 4.4 1.8 4.4 1.6 C 4.5 1.5 4.3 1.5 4.4 1.4 C 4.5 1.3 4.8 1.4 4.9 1.4 C 5.1 1.4 5.2 1.6 5.1 1.8 C 4.8 2.3 5.1 2 5.1 2.4 C 5.1 2.5 5.1 2.6 5 2.6 Z"/>
                            </g>
                        </g>
                    </g>
                </g>
                <clipPath id="eL4hDz8x6Bo51">
                    <path clip-rule="evenodd" stroke-width="1" id="eL4hDz8x6Bo52" fill="rgb(0, 0, 0)" fill-rule="evenodd" stroke="none" d="M 1.5 0 C 2.3 0 2.9 0.7 2.9 1.5 C 2.9 2.3 2.3 2.9 1.5 2.9 C 0.7 2.9 0 2.3 0 1.5 C 0 0.7 0.7 0 1.5 0 Z"/>
                </clipPath>
            </g>
            <path clip-rule="evenodd" stroke-width="0.08" stroke-miterlimit="2.61313" id="eL4hDz8x6Bo53" fill="none" fill-rule="evenodd" stroke="rgb(102, 255, 204)" stroke-linecap="round" stroke-linejoin="round" d="M 1.5 0 C 2.3 0 2.9 0.7 2.9 1.5 C 2.9 2.3 2.3 2.9 1.5 2.9 C 0.7 2.9 0 2.3 0 1.5 C 0 0.7 0.7 0 1.5 0 Z"/>
        </g>
    </g>
</svg>