<?xml version="1.0" encoding="utf-8"?>

<!DOCTYPE svg PUBLIC "-//W3C//DTD SVG 1.1 Tiny//EN" "http://www.w3.org/Graphics/SVG/1.1/DTD/svg11-tiny.dtd" [
	<!ENTITY ns_flows "http://ns.adobe.com/Flows/1.0/">
	<!ENTITY ns_extend "http://ns.adobe.com/Extensibility/1.0/">
	<!ENTITY ns_ai "http://ns.adobe.com/AdobeIllustrator/10.0/">
	<!ENTITY ns_graphs "http://ns.adobe.com/Graphs/1.0/">
]>
<!-- Uploaded to: SVG Repo, www.svgrepo.com, Generator: SVG Repo Mixer Tools -->
<svg fill="currentColor" version="1.1" xmlns="http://www.w3.org/2000/svg" viewBox="0 0 42 42" xml:space="preserve">
<path d="M39.5,22.5v-3c0-1.48-0.43-2-2-2h-13v-13c0-1.48-0.49-2-2-2h-3c-1.55,0-2,0.52-2,2v13h-14c-1.48,0-2,0.49-2,2v3
	c0,1.55,0.52,2,2,2h14v14c0,1.51,0.48,2,2,2h3c1.48,0,2-0.43,2-2v-14h13C39.01,24.5,39.5,24.02,39.5,22.5z"/>
</svg>