<svg height='100px' width='100px'  fill="#000000" xmlns="http://www.w3.org/2000/svg" xmlns:xlink="http://www.w3.org/1999/xlink" version="1.1" x="0px" y="0px" viewBox="0 0 96 96" enable-background="new 0 0 96 96" xml:space="preserve"><path d="M48,8C25.909,8,8,25.909,8,48c0,22.091,17.909,40,40,40s40-17.909,40-40C88,25.909,70.091,8,48,8z M73.23,65.546  c0,2.714-2.208,4.923-4.923,4.923H33.846c-2.714,0-4.923-2.209-4.923-4.923v-1.443c0-2.715,2.209-4.924,4.923-4.924h34.461  c2.715,0,4.923,2.209,4.923,4.924V65.546z M73.23,48.721c0,2.715-2.208,4.924-4.923,4.924H43.692c-2.715,0-4.923-2.209-4.923-4.924  v-1.442c0-2.714,2.208-4.923,4.923-4.923h24.615c2.715,0,4.923,2.208,4.923,4.923V48.721z M73.23,31.898  c0,2.714-2.208,4.923-4.923,4.923H27.692c-2.715,0-4.923-2.208-4.923-4.923v-1.444c0-2.714,2.208-4.923,4.923-4.923h40.615  c2.715,0,4.923,2.209,4.923,4.923V31.898z"></path></svg>