<svg xmlns="http://www.w3.org/2000/svg" viewBox="0 1 16 13">
    <path fill="#97C9D6" d="M.03 2.34l1.135 9.137 3.476 2.182s6.735-.031 6.763-.001l3.417-2.121 1.15-9.163L12.56 4.63l-9.136-.003z"/>
    <path fill="#1d616e" d="M.275 2.893l1.108 8.426 2.982 1.906-1.19-8.314z"/>
    <path fill="#0b252b" d="M14.626 11.4l1.058-8.506-2.946 2.096-1.141 8.262z"/>
    <path fill="#123E47" d="M4.686 13.386l-.898-8.381h8.472l-.986 8.361z"/>
    <path fill="#D6B12D" d="M8.204 5.432c.576.673 1.189 1.315 1.754 1.999a325.84 325.84 0 01-3.565-.006c.589-.672 1.153-1.385 1.811-1.993zM5.052 7.456c.274.074.549.147.825.217-.333.79-.638 1.588-.986 2.37.011-.675.049-1.345.108-2.016l.053-.571zM6.083 7.894c.623 1.046 1.271 2.084 1.819 3.171-1.005-.088-2.014-.143-3.021-.206.406-.986.777-1.986 1.202-2.965zM7.279 5.929c-.356.444-.697.925-1.111 1.316-.216.273-.638 0-.919-.015.466-.309.943-.6 1.413-.905.205-.133.411-.264.617-.396zM6.296 7.69c1.25.026 2.503.017 3.753.003a874.622 874.622 0 00-1.862 3.244C7.53 9.869 6.923 8.773 6.296 7.69zM5.204 11.156a54.62 54.62 0 012.832.182c.008.508.006 1.014-.007 1.523-.948-.56-1.868-1.162-2.825-1.705z"/>
</svg>